<?xml version="1.0"?>
<svg xmlns="http://www.w3.org/2000/svg" xmlns:xlink="http://www.w3.org/1999/xlink" xmlns:svgjs="http://svgjs.com/svgjs" version="1.1" width="512" height="512" x="0" y="0" viewBox="0 0 512 512" style="enable-background:new 0 0 512 512" xml:space="preserve" class=""><g><g xmlns="http://www.w3.org/2000/svg"><path d="m391 0c-66.167 0-120 53.833-120 120 0 46.71 28.24 75.742 30 78.794v41.206l41.382-10.356c3.003.926 21.473 10.356 48.618 10.356 66.167 0 121-53.833 121-120s-54.833-120-121-120zm-45 135h-30v-30h30zm60 0h-30v-30h30zm60 0h-30v-30h30z" fill="#eb644c" data-original="#000000" style="" class=""/><path d="m391 428.211c0-17.681-6.885-34.307-19.395-46.816-6.84-6.841-10.605-15.938-10.605-25.606v-88.898c-8.476-1.76-15.478-3.972-20.596-5.826l-69.404 17.373v-69.58c-20.112-27.788-30-57.393-30-88.857 0-27.825 8.123-53.582 21.379-75.943-15.97-7.054-33.264-11.588-51.379-13.256v-30.802h-30v30.76c-83.969 7.613-151 78.321-151 164.24v160.789c0 9.668-3.765 18.765-10.605 25.605-12.51 12.51-19.395 29.136-19.395 46.817v23.789h391z" fill="#eb644c" data-original="#000000" style="" class=""/><path d="m255.617 482h-119.234c13.705 18.104 35.213 30 59.617 30s45.912-11.896 59.617-30z" fill="#eb644c" data-original="#000000" style="" class=""/></g></g></svg>
