<?xml version="1.0"?>
<svg xmlns="http://www.w3.org/2000/svg" xmlns:xlink="http://www.w3.org/1999/xlink" xmlns:svgjs="http://svgjs.com/svgjs" version="1.1" width="512" height="512" x="0" y="0" viewBox="0 0 512 512" style="enable-background:new 0 0 512 512" xml:space="preserve" class=""><g><g xmlns="http://www.w3.org/2000/svg"><path d="m301.294 56.162c1.343.446 2.72-.578 2.656-1.992-1.48-32.471-27.47-54.17-55.934-54.17-28.637 0-54.452 21.978-55.933 54.19-.065 1.414 1.313 2.438 2.655 1.992 32.815-10.919 74.311-10.742 106.556-.02z" fill="#eb644c" data-original="#000000" style="" class=""/><path d="m449.746 376.09c-26.52-22.73-41.73-55.8-41.73-90.72v-13.488c0-1.27-1.165-2.202-2.41-1.952-67.926 13.603-133.59-38.705-133.59-109.93 0-48.357 26.506-74.251 35.063-81.593 1.136-.975.841-2.816-.55-3.368-103.643-41.122-218.513 35.28-218.513 148.961v61.37c0 34.215-14.697 67.56-41.73 90.72-4.46 3.82-8.1 8.65-10.53 13.95-12.442 27.043 7.425 57.96 37.14 57.96h349.525c21.564 0 39.961-16.426 41.491-37.936.965-13.581-4.822-25.971-14.166-33.974z" fill="#eb644c" data-original="#000000" style="" class=""/><path d="m248.016 512c29.692 0 55.241-18.063 66.233-43.782.853-1.996-.572-4.218-2.743-4.218h-126.98c-2.171 0-3.596 2.222-2.743 4.218 10.992 25.719 36.542 43.782 66.233 43.782z" fill="#eb644c" data-original="#000000" style="" class=""/><path d="m384.016 256c53.272 0 96-43.13 96-96 0-52.93-43.07-96-96-96-53.23 0-96 43.229-96 96 0 52.93 43.07 96 96 96zm-12.42-120.84c-3.96 1.97-8.76.37-10.74-3.58-1.97-3.95-.37-8.76 3.58-10.74l16-8c5.28-2.64 11.58 1.177 11.58 7.16v71c0 .552.448 1 1 1h6.728c4.262 0 7.982 3.218 8.255 7.471.299 4.66-3.388 8.529-7.983 8.529h-31.728c-4.262 0-7.982-3.218-8.255-7.471-.299-4.66 3.388-8.529 7.983-8.529h7c.552 0 1-.448 1-1v-56.439c0-.744-.784-1.228-1.449-.894z" fill="#eb644c" data-original="#000000" style="" class=""/></g></g></svg>
