<?xml version="1.0"?>
<svg xmlns="http://www.w3.org/2000/svg" xmlns:xlink="http://www.w3.org/1999/xlink" xmlns:svgjs="http://svgjs.com/svgjs" version="1.1" width="512" height="512" x="0" y="0" viewBox="0 0 609.619 609.619" style="enable-background:new 0 0 512 512" xml:space="preserve" class=""><g><g xmlns="http://www.w3.org/2000/svg"><g id="Page-1_1_"><g id="_x30_02---Messages"><path id="Shape_12_" d="m301.707 375.057 8.143-7.5 148.05-135.51c-26.346-13.31-46.878-35.845-57.685-63.313h-378.443c-1.399.002-2.795.137-4.169.403l225.015 205.931c16.773 15.179 42.321 15.174 59.089-.011zm-160.188-162.779h-21.772c-6.012 0-10.886-4.874-10.886-10.886s4.874-10.886 10.886-10.886h21.772c6.012 0 10.886 4.874 10.886 10.886s-4.874 10.886-10.886 10.886zm32.658-10.886c0-6.012 4.874-10.886 10.886-10.886h174.177c6.012 0 10.886 4.874 10.886 10.886s-4.874 10.886-10.886 10.886h-174.177c-6.012 0-10.886-4.874-10.886-10.886z" fill="#eb644c" data-original="#000000" style="" class=""/><path id="Shape_11_" d="m44.753 118.331c-.768 2.206-1.176 4.522-1.208 6.858v21.772h32.505z" fill="#eb644c" data-original="#000000" style="" class=""/><path id="Shape_10_" d="m400.215 81.645c6.487-16.521 16.563-31.394 29.501-43.544h-320.856c-1.397.008-2.789.15-4.158.425l47.137 43.12h248.376z" fill="#eb644c" data-original="#000000" style="" class=""/><path id="Shape_9_" d="m88.297 53.015c-.768 2.206-1.176 4.522-1.208 6.858v21.772h32.506z" fill="#eb644c" data-original="#000000" style="" class=""/><path id="Shape_4_" d="m393.977 146.962c-2.772-14.382-2.772-29.162 0-43.544h-328.661c-1.397.008-2.789.15-4.158.425l47.137 43.12h285.682z" fill="#eb644c" data-original="#000000" style="" class=""/><path id="Shape_5_" d="m480.673 240.734-147.31 134.835 209.731 191.91c.769-2.202 1.177-4.515 1.208-6.847v-320.333c-20.76 6.031-42.787 6.182-63.629.435z" fill="#eb644c" data-original="#000000" style="" class=""/><path id="Shape_6_" d="m511.644 27.215c-54.11 0-97.974 43.865-97.974 97.974s43.865 97.974 97.974 97.974c54.11 0 97.974-43.865 97.974-97.974-.065-54.082-43.891-97.908-97.974-97.974zm10.886 163.291c0 6.012-4.874 10.886-10.886 10.886s-10.886-4.874-10.886-10.886v-104.354l-3.19 3.19c-4.271 4.126-11.061 4.067-15.26-.133-4.199-4.199-4.258-10.989-.133-15.26l21.772-21.772c3.113-3.112 7.795-4.043 11.862-2.359 4.067 1.685 6.719 5.653 6.72 10.055v130.633z" fill="#eb644c" data-original="#000000" style="" class=""/><path id="Shape_7_" d="m1.197 183.637c-.768 2.21-1.172 4.53-1.197 6.869v370.126c.031 2.333.439 4.645 1.208 6.847l209.741-191.91z" fill="#eb644c" data-original="#000000" style="" class=""/><path id="Shape_8_" d="m316.425 391.092c-25.122 22.753-63.403 22.753-88.525 0l-.838-.762-209.437 191.649c1.366.275 2.755.417 4.148.425h500.757c1.393-.008 2.782-.15 4.148-.425l-209.437-191.594z" fill="#eb644c" data-original="#000000" style="" class=""/></g></g></g></g></svg>
