<?xml version="1.0"?>
<svg xmlns="http://www.w3.org/2000/svg" xmlns:xlink="http://www.w3.org/1999/xlink" xmlns:svgjs="http://svgjs.com/svgjs" version="1.1" width="512" height="512" x="0" y="0" viewBox="0 0 512 512" style="enable-background:new 0 0 512 512" xml:space="preserve" class=""><g><path xmlns="http://www.w3.org/2000/svg" d="m305.097656 346h-98.195312c-14.367188 0-26.050782 11.664062-26.050782 26v140h150.296876v-140c0-14.335938-11.683594-26-26.050782-26zm0 0" fill="#eb644c" data-original="#000000" style="" class=""/><path xmlns="http://www.w3.org/2000/svg" d="m456.089844 392h-68.515625c-14.492188 0-26.28125 11.664062-26.28125 26 0 83.367188.042969 78.382812-.082031 79.570312v14.429688h121.160156v-94c0-14.335938-11.792969-26-26.28125-26zm0 0" fill="#eb644c" data-original="#000000" style="" class=""/><path xmlns="http://www.w3.org/2000/svg" d="m512 121v-66c0-30.328125-24.671875-55-54.992188-55h-402.015624c-30.320313 0-54.992188 24.671875-54.992188 55v66zm-76.023438-60c8.285157 0 15 6.714844 15 15s-6.714843 15-15 15c-8.28125 0-14.996093-6.714844-14.996093-15s6.714843-15 14.996093-15zm-59.992187 0c8.28125 0 14.996094 6.714844 14.996094 15s-6.714844 15-14.996094 15c-8.285156 0-15-6.714844-15-15s6.714844-15 15-15zm-59.992187 0c8.28125 0 14.996093 6.714844 14.996093 15s-6.714843 15-14.996093 15-15-6.714844-15-15 6.71875-15 15-15zm0 0" fill="#eb644c" data-original="#000000" style="" class=""/><path xmlns="http://www.w3.org/2000/svg" d="m90.671875 302c-8.289063 0-15.03125 6.730469-15.03125 15s6.742187 15 15.03125 15c8.285156 0 15.027344-6.730469 15.027344-15s-6.742188-15-15.027344-15zm0 0" fill="#eb644c" data-original="#000000" style="" class=""/><path xmlns="http://www.w3.org/2000/svg" d="m124.464844 392h-68.585938c-14.515625 0-26.324218 11.664062-26.324218 26v94h121.234374c0-25.859375 0-90.027344 0-94 0-14.335938-11.808593-26-26.324218-26zm0 0" fill="#eb644c" data-original="#000000" style="" class=""/><path xmlns="http://www.w3.org/2000/svg" d="m422.332031 302c-8.289062 0-15.03125 6.730469-15.03125 15s6.742188 15 15.03125 15c8.289063 0 15.03125-6.730469 15.03125-15s-6.742187-15-15.03125-15zm0 0" fill="#eb644c" data-original="#000000" style="" class=""/><path xmlns="http://www.w3.org/2000/svg" d="m0 151v259.628906c3.644531-27.40625 27.308594-48.628906 55.878906-48.628906h34.789063c-24.863281 0-45.089844-20.1875-45.089844-45s20.226563-45 45.089844-45 45.089843 20.1875 45.089843 45-20.226562 45-45.089843 45c35.234375 0 44.820312-1.609375 60.238281 6.558594 1.789062-29.28125 26.214844-52.558594 55.996094-52.558594h49.597656c-29.003906 0-52.605469-23.550781-52.605469-52.5s23.601563-52.5 52.605469-52.5c29.007812 0 52.605469 23.550781 52.605469 52.5s-23.597657 52.5-52.605469 52.5h48.597656c29.792969 0 54.222656 23.292969 56 52.589844 15.214844-8.089844 24.230469-6.589844 61.234375-6.589844-24.863281 0-45.089843-20.1875-45.089843-45s20.226562-45 45.089843-45 45.089844 20.1875 45.089844 45-20.226563 45-45.089844 45h33.757813c28.75 0 52.523437 21.519531 55.910156 49.203125v-260.203125zm0 0" fill="#eb644c" data-original="#000000" style="" class=""/><path xmlns="http://www.w3.org/2000/svg" d="m256.5 241c-12.429688 0-22.542969 10.09375-22.542969 22.5s10.113281 22.5 22.542969 22.5c12.433594 0 22.546875-10.09375 22.546875-22.5s-10.113281-22.5-22.546875-22.5zm0 0" fill="#eb644c" data-original="#000000" style="" class=""/></g></svg>
