<?xml version="1.0"?>
<svg xmlns="http://www.w3.org/2000/svg" xmlns:xlink="http://www.w3.org/1999/xlink" xmlns:svgjs="http://svgjs.com/svgjs" version="1.1" width="512" height="512" x="0" y="0" viewBox="0 0 428 428" style="enable-background:new 0 0 512 512" xml:space="preserve" class=""><g><path xmlns="http://www.w3.org/2000/svg" d="m317 278.90625-25 25.402344c-.71875.839844-1.648438 1.476562-2.691406 1.84375l-62.886719 20.847656h38.695313c4.417968 0 8 3.582031 8 8s-3.582032 8-8 8h-213.007813c-4.417969 0-8-3.582031-8-8s3.582031-8 8-8h166.382813c-.679688 0-1.3125-.738281-1.875-1.300781-2.140626-2.105469-2.890626-5.253907-1.929688-8.097657l4.820312-14.601562h-167.398437c-4.417969 0-8-3.582031-8-8s3.582031-8 8-8h172.746094l11.28125-33.898438c.28125-1.105468.835937-2.121093 1.617187-2.949218l79.246094-79.507813v-89.644531h-72.089844c-4.417968 0-7.910156-3.128906-7.910156-7.550781v-73.449219h-237v428h317zm-264.890625-31.90625h113.007813c4.417968 0 8 3.582031 8 8s-3.582032 8-8 8h-113.007813c-4.417969 0-8-3.582031-8-8s3.582031-8 8-8zm213.007813 136h-213.007813c-4.417969 0-8-3.582031-8-8s3.582031-8 8-8h213.007813c4.417968 0 8 3.582031 8 8s-3.582032 8-8 8zm0 0" fill="#eb644c" data-original="#000000" style="" class=""/><path xmlns="http://www.w3.org/2000/svg" d="m253 11.808594v53.191406h53.554688zm0 0" fill="#eb644c" data-original="#000000" style="" class=""/><path xmlns="http://www.w3.org/2000/svg" d="m234.945312 307.640625 37.027344-12.378906-24.648437-24.648438zm0 0" fill="#eb644c" data-original="#000000" style="" class=""/><path xmlns="http://www.w3.org/2000/svg" d="m286.765625 287.425781 101.289063-101.511719-31.382813-31.382812-101.511719 101.289062zm0 0" fill="#eb644c" data-original="#000000" style="" class=""/><path xmlns="http://www.w3.org/2000/svg" d="m423.589844 150.296875-31.304688-31.300781-24.289062 24.234375 31.359375 31.355469zm0 0" fill="#eb644c" data-original="#000000" style="" class=""/></g></svg>
