<?xml version="1.0"?>
<svg xmlns="http://www.w3.org/2000/svg" xmlns:xlink="http://www.w3.org/1999/xlink" xmlns:svgjs="http://svgjs.com/svgjs" version="1.1" width="512" height="512" x="0" y="0" viewBox="0 0 512 512" style="enable-background:new 0 0 512 512" xml:space="preserve" class=""><g><path xmlns="http://www.w3.org/2000/svg" d="m84.269531 290.640625v-168.210937h-18.726562v187.265624h18.726562zm0 0" fill="#eb644c" data-original="#000000" style="" class=""/><path xmlns="http://www.w3.org/2000/svg" d="m404.941406 284.976562c.09375-.207031.082032-.441406.074219-.664062-.535156-9.503906-2.351563-21.734375-8.996094-29.027344-5.234375-5.738281-12.96875-8.613281-20.441406-10.054687-1.722656-.328125-3.464844-.589844-5.207031-.777344-6.636719-.691406-13.800782-.777344-22.527344-.636719l-19.335938.316406c-5.214843.039063-11.320312.046876-17.320312-.324218l-1.46875-.085938c-11.492188-.597656-35.394531-1.871094-35.394531-18.625 0-3.097656 1.535156-5.992187 4.089843-7.734375l23.167969-15.785156-27.988281-27.984375-49.082031-49.082031-121.527344 32.855469v130.707031c1.050781.976562 2.546875 2.183593 3.230469 2.746093.722656.578126 1.320312 1.066407 1.707031 1.402344 12.191406 10.9375 26.046875 18.953125 40.082031 23.210938 9.363282 2.839844 18.652344 3.867187 27.601563 3.015625 10.347656-.964844 19.1875-5.035157 29.421875-9.753907l2.707031-1.246093c20.765625-9.53125 43.453125-13.96875 60.898437-16.769531 22.078126-3.550782 44.679688-5.421876 67.179688-5.554688 11.347656-.0625 22.714844.039062 33.996094 1.367188 5.574218.65625 10.957031 1.789062 16.378906 3.089843 5.4375 1.3125 11.226562-.992187 16.121094-3.152343.621094-.273438 1.238281-.554688 1.855468-.835938.300782-.128906.617188-.289062.777344-.617188zm0 0" fill="#eb644c" data-original="#000000" style="" class=""/><path xmlns="http://www.w3.org/2000/svg" d="m46.816406 319.058594v-215.355469h-46.816406v234.082031h46.816406zm0 0" fill="#eb644c" data-original="#000000" style="" class=""/><path xmlns="http://www.w3.org/2000/svg" d="m341.082031 188.105469-21.019531-21.019531-124.238281-124.242188-13.242188 13.238281 168.960938 168.960938c.9375-.007813 1.851562-.007813 2.761719-.007813 1.3125 0 2.5.054688 3.753906.0625 1.199218.019532 2.472656.03125 3.644531.066406 3.667969.113282 7.21875.300782 10.664063.664063 2.628906.28125 5.167968.664063 7.609374 1.164063zm0 0" fill="#eb644c" data-original="#000000" style="" class=""/><path xmlns="http://www.w3.org/2000/svg" d="m139.953125 7.730469c-.199219 1.132812-.167969 2.238281.054687 3.371093.113282.570313.121094 1.171876.335938 1.703126.460938 1.125 1.144531 2.175781 2.050781 3.082031l26.949219 26.957031 13.238281-13.238281-26.945312-26.957031c-3.539063-3.53125-9.710938-3.53125-13.242188 0-.90625.90625-1.589843 1.957031-2.039062 3.078124-.273438.636719-.289063 1.332032-.402344 2.003907zm0 0" fill="#eb644c" data-original="#000000" style="" class=""/><path xmlns="http://www.w3.org/2000/svg" d="m348.835938 169.378906 4.484374-3.0625c10.421876-6.9375 23.101563-8.625 34.871094-4.699218l20.410156 7.863281c15.785157 5.394531 25.355469 22.773437 26.675782 37.230469.066406.699218.046875 1.394531-.046875 2.097656l-5.570313 41.402344 25.234375 25.234374c1.253907-1.582031 2.199219-3.398437 2.75-5.355468l19.769531-70.300782c1.261719-22.179687-9.222656-43.714843-27.519531-56.375l-46.050781-31.882812c-23.875-16.523438-53.574219-21.449219-81.496094-13.453125l-35.289062 9.539063zm0 0" fill="#eb644c" data-original="#000000" style="" class=""/><path xmlns="http://www.w3.org/2000/svg" d="m512 372.269531-14.042969-27.285156c-2.070312-2.066406-4.140625-4.148437-6.21875-6.214844-5.113281-5.113281-10.226562-10.234375-15.347656-15.347656-6.515625-6.515625-13.023437-13.023437-19.539063-19.539063-6.273437-6.273437-12.539062-12.539062-18.8125-18.8125-4.382812-4.382812-8.761718-8.765624-13.144531-13.144531-1.003906-1.003906-1.996093-2.023437-3.007812-3.007812.125.5625.246093 1.144531.328125 1.722656.835937 6.125 1.707031 12.203125 1.855468 18.390625.019532 1.03125.027344 2.078125-.113281 3.109375-.167969 1.132813-1.078125 2.332031-1.179687 3.339844-.09375.863281.414062 1.210937 1.097656 1.894531 1 1.011719 2.011719 2.011719 3.023438 3.023438 3.285156 3.285156 6.570312 6.574218 9.859374 9.859374 8.855469 8.855469 17.714844 17.714844 26.570313 26.574219 6.566406 6.5625 13.128906 13.117188 19.691406 19.679688.574219.570312 1.144531 1.132812 1.707031 1.703125zm0 0" fill="#eb644c" data-original="#000000" style="" class=""/></g></svg>
