<?xml version="1.0"?>
<svg xmlns="http://www.w3.org/2000/svg" xmlns:xlink="http://www.w3.org/1999/xlink" xmlns:svgjs="http://svgjs.com/svgjs" version="1.1" width="512" height="512" x="0" y="0" viewBox="0 0 511.999 511.999" style="enable-background:new 0 0 512 512" xml:space="preserve" class=""><g><g xmlns="http://www.w3.org/2000/svg"><path d="m305.707 285.819 3.469.825 3.469-.825c27.224-6.471 51.771-22.126 69.119-44.082s26.902-49.458 26.902-77.44v-80.819l-99.49-52.191-99.491 52.191v80.818c0 27.982 9.555 55.484 26.902 77.44 17.349 21.956 41.896 37.612 69.12 44.083zm-31.171-144.77 25.157 24.827 44.052-44.051 21.213 21.213-65.124 65.125-46.37-45.761z" fill="#eb644c" data-original="#000000" style="" class=""/><path d="m0 282.628v198.084h33c7.662 0 14.848-2.034 21.083-5.562v-186.981c-6.233-3.524-13.425-5.542-21.083-5.542h-33z" fill="#eb644c" data-original="#000000" style="" class=""/><path d="m503.382 297.277c-11.121-11.126-28.958-11.557-40.604-.979l-62.21 56.497c.061 1.071.1 2.149.1 3.235 0 30.995-25.217 56.212-56.212 56.212h-104.505v-30h104.504c14.453 0 26.212-11.758 26.212-26.211s-11.759-26.211-26.212-26.211h-114.939l-4.488-5.221c-18.163-21.126-44.525-33.243-72.326-33.243-25.964 0-50.671 10.571-68.618 29.176v133.74l76.777 25.95h195.988l146.149-140.946c5.731-5.527 8.928-12.956 9-20.918.073-7.964-2.986-15.449-8.616-21.081z" fill="#eb644c" data-original="#000000" style="" class=""/></g></g></svg>
