<?xml version="1.0"?>
<svg xmlns="http://www.w3.org/2000/svg" xmlns:xlink="http://www.w3.org/1999/xlink" xmlns:svgjs="http://svgjs.com/svgjs" version="1.1" width="512" height="512" x="0" y="0" viewBox="0 0 511.88 511.88" style="enable-background:new 0 0 512 512" xml:space="preserve" class=""><g><g xmlns="http://www.w3.org/2000/svg"><path d="m0 293.65v210.7h511.88v-210.7zm92.92 85.84 21.21-21.22 21.34 21.34 21.34-21.34 21.21 21.22-21.33 21.34 21.33 21.33-21.21 21.22-21.34-21.34-21.34 21.34-21.21-21.22 21.34-21.33zm120.47 0 21.21-21.22 21.34 21.34 21.34-21.34 21.21 21.22-21.33 21.34 21.33 21.33-21.21 21.22-21.34-21.34-21.34 21.34-21.21-21.22 21.34-21.33zm120.47 0 21.21-21.22 21.34 21.34 21.34-21.34 21.21 21.22-21.33 21.34 21.33 21.33-21.21 21.22-21.34-21.34-21.34 21.34-21.21-21.22 21.34-21.33z" fill="#eb644c" data-original="#000000" style="" class=""/><path d="m197.62 210.7c24.07 33.16 62.16 52.71 103.5 52.71 70.54 0 127.94-57.39 127.94-127.94s-57.4-127.94-127.94-127.94c-41.34 0-79.44 19.55-103.5 52.7h-114.8v150.48c74.657-.012 46.116-.01 114.8-.01zm81.86-120.83 21.22-21.21 66.81 66.81-66.81 66.81-21.22-21.21 30.6-30.6h-167.08v-30h167.08z" fill="#eb644c" data-original="#000000" style="" class=""/></g></g></svg>
